G04 This is an RS-274x file exported by *
G04 gerbv version 2.6.1 *
G04 More information is available about gerbv at *
G04 http://gerbv.geda-project.org/ *
G04 --End of header info--*
%MOIN*%
%FSLAX34Y34*%
%IPPOS*%
G04 --Define apertures--*
%ADD10C,0.0001*%
%ADD11C,0.0400*%
%ADD12C,0.0900*%
%ADD13C,0.0850*%
%ADD14C,0.0950*%
%ADD15R,0.2362X0.2362*%
%ADD16R,0.0630X0.0630*%
%ADD17C,0.0280*%
%ADD18C,0.0300*%
%ADD19C,0.0430*%
G04 --Start main section--*
G54D10*
G36*
G01X0005725Y0020472D02*
G01X0011000Y0020472D01*
G01X0011000Y0000000D01*
G01X0005725Y0000000D01*
G01X0005725Y0001206D01*
G01X0005742Y0001210D01*
G01X0005771Y0001222D01*
G01X0005797Y0001238D01*
G01X0005821Y0001258D01*
G01X0005841Y0001282D01*
G01X0005857Y0001308D01*
G01X0005869Y0001337D01*
G01X0005876Y0001367D01*
G01X0005878Y0001398D01*
G01X0005878Y0002172D01*
G01X0007376Y0002172D01*
G01X0007376Y0001974D01*
G01X0007382Y0001951D01*
G01X0007391Y0001929D01*
G01X0007403Y0001909D01*
G01X0007419Y0001891D01*
G01X0007437Y0001876D01*
G01X0007457Y0001863D01*
G01X0007479Y0001854D01*
G01X0007502Y0001849D01*
G01X0007525Y0001847D01*
G01X0008499Y0001849D01*
G01X0008522Y0001854D01*
G01X0008543Y0001863D01*
G01X0008563Y0001876D01*
G01X0008581Y0001891D01*
G01X0008597Y0001909D01*
G01X0008609Y0001929D01*
G01X0008618Y0001951D01*
G01X0008624Y0001974D01*
G01X0008625Y0001997D01*
G01X0008624Y0002971D01*
G01X0008618Y0002994D01*
G01X0008609Y0003016D01*
G01X0008597Y0003036D01*
G01X0008581Y0003054D01*
G01X0008563Y0003069D01*
G01X0008543Y0003082D01*
G01X0008522Y0003091D01*
G01X0008500Y0003096D01*
G01X0008507Y0003104D01*
G01X0008559Y0003188D01*
G01X0008596Y0003279D01*
G01X0008619Y0003374D01*
G01X0008625Y0003472D01*
G01X0008619Y0003571D01*
G01X0008596Y0003666D01*
G01X0008559Y0003757D01*
G01X0008507Y0003841D01*
G01X0008443Y0003916D01*
G01X0008369Y0003980D01*
G01X0008300Y0004022D01*
G01X0008300Y0006592D01*
G01X0008309Y0006587D01*
G01X0008330Y0006578D01*
G01X0008353Y0006573D01*
G01X0008377Y0006571D01*
G01X0009250Y0006573D01*
G01X0009273Y0006578D01*
G01X0009295Y0006587D01*
G01X0009315Y0006599D01*
G01X0009333Y0006615D01*
G01X0009349Y0006633D01*
G01X0009361Y0006653D01*
G01X0009370Y0006675D01*
G01X0009375Y0006698D01*
G01X0009377Y0006721D01*
G01X0009375Y0007595D01*
G01X0009370Y0007618D01*
G01X0009361Y0007640D01*
G01X0009349Y0007660D01*
G01X0009333Y0007678D01*
G01X0009315Y0007693D01*
G01X0009295Y0007705D01*
G01X0009273Y0007714D01*
G01X0009250Y0007720D01*
G01X0009227Y0007721D01*
G01X0008353Y0007720D01*
G01X0008330Y0007714D01*
G01X0008309Y0007705D01*
G01X0008288Y0007693D01*
G01X0008270Y0007678D01*
G01X0008255Y0007660D01*
G01X0008243Y0007640D01*
G01X0008234Y0007618D01*
G01X0008228Y0007595D01*
G01X0008227Y0007571D01*
G01X0008227Y0007446D01*
G01X0008012Y0007446D01*
G01X0008000Y0007447D01*
G01X0007953Y0007443D01*
G01X0007907Y0007432D01*
G01X0007863Y0007414D01*
G01X0007823Y0007390D01*
G01X0007787Y0007359D01*
G01X0007756Y0007323D01*
G01X0007732Y0007283D01*
G01X0007714Y0007239D01*
G01X0007703Y0007193D01*
G01X0007703Y0007193D01*
G01X0007699Y0007146D01*
G01X0007700Y0007134D01*
G01X0007700Y0004022D01*
G01X0007632Y0003980D01*
G01X0007557Y0003916D01*
G01X0007493Y0003841D01*
G01X0007441Y0003757D01*
G01X0007404Y0003666D01*
G01X0007381Y0003571D01*
G01X0007373Y0003472D01*
G01X0007381Y0003374D01*
G01X0007404Y0003279D01*
G01X0007441Y0003188D01*
G01X0007493Y0003104D01*
G01X0007500Y0003096D01*
G01X0007479Y0003091D01*
G01X0007457Y0003082D01*
G01X0007437Y0003069D01*
G01X0007419Y0003054D01*
G01X0007403Y0003036D01*
G01X0007391Y0003016D01*
G01X0007382Y0002994D01*
G01X0007376Y0002971D01*
G01X0007375Y0002947D01*
G01X0007375Y0002772D01*
G01X0005877Y0002772D01*
G01X0005876Y0004578D01*
G01X0005869Y0004608D01*
G01X0005857Y0004637D01*
G01X0005841Y0004663D01*
G01X0005821Y0004687D01*
G01X0005817Y0004690D01*
G01X0005837Y0004703D01*
G01X0005860Y0004723D01*
G01X0005880Y0004746D01*
G01X0005896Y0004773D01*
G01X0005908Y0004801D01*
G01X0005916Y0004831D01*
G01X0005917Y0004862D01*
G01X0005916Y0005625D01*
G01X0007076Y0005625D01*
G01X0007088Y0005624D01*
G01X0007135Y0005628D01*
G01X0007135Y0005628D01*
G01X0007181Y0005639D01*
G01X0007225Y0005657D01*
G01X0007265Y0005682D01*
G01X0007301Y0005713D01*
G01X0007332Y0005749D01*
G01X0007356Y0005789D01*
G01X0007374Y0005832D01*
G01X0007385Y0005878D01*
G01X0007389Y0005925D01*
G01X0007388Y0005937D01*
G01X0007388Y0006941D01*
G01X0007537Y0006941D01*
G01X0007560Y0006947D01*
G01X0007581Y0006956D01*
G01X0007601Y0006968D01*
G01X0007619Y0006984D01*
G01X0007635Y0007002D01*
G01X0007647Y0007022D01*
G01X0007656Y0007044D01*
G01X0007662Y0007066D01*
G01X0007663Y0007090D01*
G01X0007662Y0007964D01*
G01X0007656Y0007987D01*
G01X0007647Y0008008D01*
G01X0007635Y0008028D01*
G01X0007619Y0008046D01*
G01X0007601Y0008062D01*
G01X0007581Y0008074D01*
G01X0007560Y0008083D01*
G01X0007537Y0008089D01*
G01X0007513Y0008090D01*
G01X0007388Y0008090D01*
G01X0007388Y0009456D01*
G01X0009738Y0009456D01*
G01X0009750Y0009455D01*
G01X0009797Y0009459D01*
G01X0009797Y0009459D01*
G01X0009843Y0009470D01*
G01X0009887Y0009488D01*
G01X0009927Y0009513D01*
G01X0009963Y0009544D01*
G01X0009994Y0009580D01*
G01X0010018Y0009620D01*
G01X0010036Y0009663D01*
G01X0010047Y0009709D01*
G01X0010051Y0009756D01*
G01X0010050Y0009768D01*
G01X0010050Y0017961D01*
G01X0010051Y0017972D01*
G01X0010047Y0018020D01*
G01X0010036Y0018065D01*
G01X0010018Y0018109D01*
G01X0009994Y0018149D01*
G01X0009963Y0018185D01*
G01X0009927Y0018216D01*
G01X0009887Y0018241D01*
G01X0009843Y0018259D01*
G01X0009797Y0018270D01*
G01X0009750Y0018273D01*
G01X0009738Y0018272D01*
G01X0009520Y0018272D01*
G01X0009487Y0018326D01*
G01X0009426Y0018398D01*
G01X0009354Y0018459D01*
G01X0009273Y0018509D01*
G01X0009186Y0018545D01*
G01X0009094Y0018567D01*
G01X0009000Y0018574D01*
G01X0008906Y0018567D01*
G01X0008814Y0018545D01*
G01X0008727Y0018509D01*
G01X0008646Y0018459D01*
G01X0008574Y0018398D01*
G01X0008538Y0018355D01*
G01X0005869Y0018355D01*
G01X0005836Y0018409D01*
G01X0005774Y0018481D01*
G01X0005725Y0018523D01*
G01X0005725Y0020472D01*
G37*
G36*
G01X0000000Y0020472D02*
G01X0005725Y0020472D01*
G01X0005725Y0018523D01*
G01X0005703Y0018542D01*
G01X0005622Y0018591D01*
G01X0005535Y0018628D01*
G01X0005443Y0018650D01*
G01X0005349Y0018657D01*
G01X0005255Y0018650D01*
G01X0005163Y0018628D01*
G01X0005076Y0018591D01*
G01X0004995Y0018542D01*
G01X0004923Y0018481D01*
G01X0004862Y0018409D01*
G01X0004829Y0018355D01*
G01X0004539Y0018355D01*
G01X0004528Y0018356D01*
G01X0004481Y0018352D01*
G01X0004435Y0018341D01*
G01X0004391Y0018323D01*
G01X0004351Y0018299D01*
G01X0004315Y0018268D01*
G01X0004284Y0018232D01*
G01X0004260Y0018192D01*
G01X0004241Y0018148D01*
G01X0004230Y0018102D01*
G01X0004230Y0018102D01*
G01X0004227Y0018055D01*
G01X0004228Y0018043D01*
G01X0004228Y0014106D01*
G01X0004228Y0014106D01*
G01X0003328Y0014105D01*
G01X0003328Y0017961D01*
G01X0003329Y0017972D01*
G01X0003325Y0018020D01*
G01X0003314Y0018065D01*
G01X0003296Y0018109D01*
G01X0003271Y0018149D01*
G01X0003240Y0018185D01*
G01X0003205Y0018216D01*
G01X0003164Y0018241D01*
G01X0003121Y0018259D01*
G01X0003075Y0018270D01*
G01X0003028Y0018273D01*
G01X0003016Y0018272D01*
G01X0002520Y0018272D01*
G01X0002487Y0018326D01*
G01X0002426Y0018398D01*
G01X0002354Y0018459D01*
G01X0002273Y0018509D01*
G01X0002186Y0018545D01*
G01X0002094Y0018567D01*
G01X0002000Y0018574D01*
G01X0001906Y0018567D01*
G01X0001814Y0018545D01*
G01X0001727Y0018509D01*
G01X0001646Y0018459D01*
G01X0001574Y0018398D01*
G01X0001513Y0018326D01*
G01X0001464Y0018246D01*
G01X0001428Y0018158D01*
G01X0001406Y0018067D01*
G01X0001398Y0017972D01*
G01X0001406Y0017878D01*
G01X0001428Y0017787D01*
G01X0001464Y0017699D01*
G01X0001513Y0017619D01*
G01X0001554Y0017571D01*
G01X0001527Y0017571D01*
G01X0001504Y0017566D01*
G01X0001482Y0017557D01*
G01X0001462Y0017544D01*
G01X0001444Y0017529D01*
G01X0001428Y0017511D01*
G01X0001416Y0017491D01*
G01X0001407Y0017469D01*
G01X0001401Y0017446D01*
G01X0001400Y0017422D01*
G01X0001401Y0016499D01*
G01X0001407Y0016476D01*
G01X0001416Y0016454D01*
G01X0001428Y0016434D01*
G01X0001444Y0016416D01*
G01X0001462Y0016401D01*
G01X0001482Y0016388D01*
G01X0001504Y0016379D01*
G01X0001527Y0016374D01*
G01X0001550Y0016372D01*
G01X0001700Y0016373D01*
G01X0001700Y0014528D01*
G01X0001651Y0014498D01*
G01X0001582Y0014439D01*
G01X0001523Y0014370D01*
G01X0001476Y0014293D01*
G01X0001442Y0014209D01*
G01X0001420Y0014121D01*
G01X0001413Y0014031D01*
G01X0001420Y0013941D01*
G01X0001442Y0013853D01*
G01X0001476Y0013769D01*
G01X0001523Y0013692D01*
G01X0001582Y0013623D01*
G01X0001651Y0013565D01*
G01X0001690Y0013541D01*
G01X0001690Y0011518D01*
G01X0001689Y0011506D01*
G01X0001693Y0011459D01*
G01X0001704Y0011413D01*
G01X0001722Y0011370D01*
G01X0001747Y0011329D01*
G01X0001777Y0011294D01*
G01X0001813Y0011263D01*
G01X0001853Y0011238D01*
G01X0001897Y0011220D01*
G01X0001943Y0011209D01*
G01X0001990Y0011205D01*
G01X0002002Y0011206D01*
G01X0003258Y0011206D01*
G01X0003291Y0011153D01*
G01X0003352Y0011081D01*
G01X0003424Y0011019D01*
G01X0003445Y0011006D01*
G01X0003424Y0010993D01*
G01X0003352Y0010932D01*
G01X0003291Y0010860D01*
G01X0003241Y0010780D01*
G01X0003205Y0010692D01*
G01X0003183Y0010601D01*
G01X0003176Y0010506D01*
G01X0003183Y0010412D01*
G01X0003205Y0010320D01*
G01X0003241Y0010233D01*
G01X0003291Y0010153D01*
G01X0003352Y0010081D01*
G01X0003424Y0010019D01*
G01X0003478Y0009987D01*
G01X0003478Y0009331D01*
G01X0002564Y0009331D01*
G01X0002564Y0009480D01*
G01X0002558Y0009503D01*
G01X0002549Y0009525D01*
G01X0002537Y0009545D01*
G01X0002521Y0009563D01*
G01X0002503Y0009578D01*
G01X0002483Y0009590D01*
G01X0002462Y0009599D01*
G01X0002439Y0009605D01*
G01X0002415Y0009606D01*
G01X0001542Y0009605D01*
G01X0001519Y0009599D01*
G01X0001497Y0009590D01*
G01X0001477Y0009578D01*
G01X0001459Y0009563D01*
G01X0001443Y0009545D01*
G01X0001431Y0009525D01*
G01X0001422Y0009503D01*
G01X0001416Y0009480D01*
G01X0001415Y0009456D01*
G01X0001416Y0008583D01*
G01X0001422Y0008560D01*
G01X0001431Y0008538D01*
G01X0001443Y0008518D01*
G01X0001459Y0008500D01*
G01X0001477Y0008485D01*
G01X0001497Y0008472D01*
G01X0001519Y0008463D01*
G01X0001542Y0008458D01*
G01X0001565Y0008456D01*
G01X0001828Y0008457D01*
G01X0001820Y0008443D01*
G01X0001802Y0008399D01*
G01X0001791Y0008353D01*
G01X0001791Y0008353D01*
G01X0001787Y0008306D01*
G01X0001788Y0008294D01*
G01X0001788Y0008006D01*
G01X0001749Y0007982D01*
G01X0001680Y0007923D01*
G01X0001621Y0007854D01*
G01X0001574Y0007777D01*
G01X0001540Y0007693D01*
G01X0001518Y0007605D01*
G01X0001511Y0007515D01*
G01X0001518Y0007425D01*
G01X0001540Y0007337D01*
G01X0001574Y0007253D01*
G01X0001621Y0007176D01*
G01X0001680Y0007107D01*
G01X0001749Y0007048D01*
G01X0001788Y0007024D01*
G01X0001788Y0005937D01*
G01X0001787Y0005925D01*
G01X0001791Y0005878D01*
G01X0001802Y0005832D01*
G01X0001820Y0005789D01*
G01X0001845Y0005749D01*
G01X0001875Y0005713D01*
G01X0001911Y0005682D01*
G01X0001951Y0005657D01*
G01X0001995Y0005639D01*
G01X0002041Y0005628D01*
G01X0002088Y0005624D01*
G01X0002100Y0005625D01*
G01X0003084Y0005625D01*
G01X0003085Y0004831D01*
G01X0003092Y0004801D01*
G01X0003104Y0004773D01*
G01X0003120Y0004746D01*
G01X0003140Y0004723D01*
G01X0003164Y0004703D01*
G01X0003183Y0004690D01*
G01X0003179Y0004687D01*
G01X0003159Y0004663D01*
G01X0003143Y0004637D01*
G01X0003131Y0004608D01*
G01X0003124Y0004578D01*
G01X0003122Y0004547D01*
G01X0003124Y0001367D01*
G01X0003131Y0001337D01*
G01X0003143Y0001308D01*
G01X0003159Y0001282D01*
G01X0003179Y0001258D01*
G01X0003203Y0001238D01*
G01X0003229Y0001222D01*
G01X0003258Y0001210D01*
G01X0003288Y0001203D01*
G01X0003319Y0001201D01*
G01X0005712Y0001203D01*
G01X0005725Y0001206D01*
G01X0005725Y0000000D01*
G01X0000000Y0000000D01*
G01X0000000Y0020472D01*
G37*
G54D11*
G01X0003778Y0010506D02*
G01X0003778Y0009031D01*
G01X0003778Y0009031D02*
G01X0001990Y0009031D01*
G01X0004528Y0010506D02*
G01X0003778Y0010506D01*
G01X0003778Y0011506D02*
G01X0001990Y0011506D01*
G01X0006028Y0011506D02*
G01X0006028Y0008306D01*
G01X0001990Y0014031D02*
G01X0001990Y0011506D01*
G01X0002000Y0014031D02*
G01X0001990Y0014031D01*
G01X0002000Y0016972D02*
G01X0002000Y0014031D01*
G01X0003028Y0017972D02*
G01X0002000Y0017972D01*
G01X0003028Y0017972D02*
G01X0003028Y0012506D01*
G01X0003778Y0012506D02*
G01X0003028Y0012506D01*
G01X0005799Y0015105D02*
G01X0005799Y0013506D01*
G01X0005799Y0015105D02*
G01X0005349Y0015105D01*
G01X0005349Y0015555D02*
G01X0005349Y0015105D01*
G01X0002088Y0008306D02*
G01X0002088Y0007515D01*
G01X0006028Y0008306D02*
G01X0002088Y0008306D01*
G01X0003595Y0005925D02*
G01X0002088Y0005925D01*
G01X0002088Y0007515D02*
G01X0002088Y0005925D01*
G01X0005349Y0018055D02*
G01X0004528Y0018055D01*
G01X0004528Y0018055D02*
G01X0004528Y0010506D01*
G01X0009000Y0018055D02*
G01X0005349Y0018055D01*
G01X0006778Y0013506D02*
G01X0005799Y0013506D01*
G01X0008802Y0013506D02*
G01X0008802Y0012146D01*
G01X0008802Y0013506D02*
G01X0006778Y0013506D01*
G01X0009750Y0009756D02*
G01X0007088Y0009756D01*
G01X0009750Y0017972D02*
G01X0009750Y0009756D01*
G01X0009750Y0017972D02*
G01X0009000Y0017972D01*
G01X0009000Y0018055D02*
G01X0009000Y0017972D01*
G01X0006778Y0011506D02*
G01X0006028Y0011506D01*
G01X0009000Y0013506D02*
G01X0007790Y0013506D01*
G01X0009000Y0016972D02*
G01X0009000Y0013506D01*
G01X0007088Y0009756D02*
G01X0007088Y0007515D01*
G01X0007088Y0007515D02*
G01X0007088Y0005925D01*
G01X0008802Y0007146D02*
G01X0008000Y0007146D01*
G01X0007088Y0005925D02*
G01X0005406Y0005925D01*
G01X0004500Y0002579D02*
G01X0004500Y0002472D01*
G01X0008000Y0002472D02*
G01X0004500Y0002472D01*
G01X0008000Y0007146D02*
G01X0008000Y0003472D01*
G54D12*
G01X0006778Y0010506D03*
G54D10*
G36*
G01X0008377Y0007571D02*
G01X0008377Y0006721D01*
G01X0009227Y0006721D01*
G01X0009227Y0007571D01*
G01X0008377Y0007571D01*
G37*
G36*
G01X0006663Y0007940D02*
G01X0006663Y0007090D01*
G01X0007513Y0007090D01*
G01X0007513Y0007940D01*
G01X0006663Y0007940D01*
G37*
G54D12*
G01X0006778Y0011506D03*
G54D10*
G36*
G01X0001565Y0009456D02*
G01X0001565Y0008606D01*
G01X0002415Y0008606D01*
G01X0002415Y0009456D01*
G01X0001565Y0009456D01*
G37*
G54D12*
G01X0003778Y0010506D03*
G54D13*
G01X0002088Y0007515D03*
G54D10*
G36*
G01X0007525Y0002947D02*
G01X0007525Y0001997D01*
G01X0008475Y0001997D01*
G01X0008475Y0002947D01*
G01X0007525Y0002947D01*
G37*
G54D14*
G01X0008000Y0003472D03*
G54D13*
G01X0001990Y0014031D03*
G54D10*
G36*
G01X0003328Y0013956D02*
G01X0003328Y0013056D01*
G01X0004228Y0013056D01*
G01X0004228Y0013956D01*
G01X0003328Y0013956D01*
G37*
G54D12*
G01X0003778Y0012506D03*
G01X0003778Y0011506D03*
G54D10*
G36*
G01X0001550Y0017422D02*
G01X0001550Y0016522D01*
G01X0002450Y0016522D01*
G01X0002450Y0017422D01*
G01X0001550Y0017422D01*
G37*
G54D12*
G01X0002000Y0017972D03*
G01X0006778Y0012506D03*
G54D13*
G01X0008802Y0012146D03*
G54D12*
G01X0006778Y0013506D03*
G54D10*
G36*
G01X0004899Y0016005D02*
G01X0004899Y0015105D01*
G01X0005799Y0015105D01*
G01X0005799Y0016005D01*
G01X0004899Y0016005D01*
G37*
G54D12*
G01X0005349Y0018055D03*
G54D10*
G36*
G01X0008550Y0017422D02*
G01X0008550Y0016522D01*
G01X0009450Y0016522D01*
G01X0009450Y0017422D01*
G01X0008550Y0017422D01*
G37*
G54D12*
G01X0009000Y0017972D03*
G54D15*
G01X0004500Y0003366D02*
G01X0004500Y0002579D01*
G54D16*
G01X0005406Y0005925D02*
G01X0005406Y0005177D01*
G01X0003595Y0005925D02*
G01X0003595Y0005177D01*
M02*
