M48
INCH,TZ
T10C0.028
T11C0.030
T12C0.043
%
T10
X002000Y017972
X002000Y016972
X003778Y013506
X003778Y012506
X003778Y011506
X003778Y010506
X006778Y013506
X006778Y012506
X006778Y011506
X006778Y010506
X009000Y017972
X009000Y016972
T11
X001990Y014031
X001990Y009031
X002088Y007515
X005349Y018055
X005349Y015555
X007088Y007515
X008802Y012146
X008802Y007146
T12
X008000Y003472
X008000Y002472
M30

