<?xml version="1.0" encoding="UTF-8" standalone="no"?>
<svg
   xmlns:dc="http://purl.org/dc/elements/1.1/"
   xmlns:cc="http://creativecommons.org/ns#"
   xmlns:rdf="http://www.w3.org/1999/02/22-rdf-syntax-ns#"
   xmlns:svg="http://www.w3.org/2000/svg"
   xmlns="http://www.w3.org/2000/svg"
   xmlns:sodipodi="http://sodipodi.sourceforge.net/DTD/sodipodi-0.dtd"
   xmlns:inkscape="http://www.inkscape.org/namespaces/inkscape"
   width="87pt"
   height="162pt"
   viewBox="0 0 87 162"
   version="1.1"
   id="svg177"
   sodipodi:docname="sender.bottom.svg"
   inkscape:version="0.92.1 r15371">
  <metadata
     id="metadata183">
    <rdf:RDF>
      <cc:Work
         rdf:about="">
        <dc:format>image/svg+xml</dc:format>
        <dc:type
           rdf:resource="http://purl.org/dc/dcmitype/StillImage" />
        <dc:title></dc:title>
      </cc:Work>
    </rdf:RDF>
  </metadata>
  <defs
     id="defs181" />
  <sodipodi:namedview
     pagecolor="#000000"
     bordercolor="#666666"
     borderopacity="1"
     objecttolerance="10"
     gridtolerance="10"
     guidetolerance="10"
     inkscape:pageopacity="0.69803922"
     inkscape:pageshadow="2"
     inkscape:window-width="1680"
     inkscape:window-height="986"
     id="namedview179"
     showgrid="false"
     inkscape:zoom="3.0903185"
     inkscape:cx="5.4454925"
     inkscape:cy="123.83269"
     inkscape:window-x="0"
     inkscape:window-y="27"
     inkscape:window-maximized="1"
     inkscape:current-layer="layer2"
     showborder="false"
     inkscape:pagecheckerboard="true" />
  <g
     inkscape:groupmode="layer"
     id="layer1"
     inkscape:label="Background"
     style="display:inline;opacity:1">
    <rect
       style="fill:#000000;stroke-width:0.75"
       id="rect437"
       width="79.199219"
       height="147.39844"
       x="3.9648438"
       y="7.226562" />
  </g>
  <g
     inkscape:groupmode="layer"
     id="layer2"
     inkscape:label="Design"
     style="display:inline;opacity:1">
    <g
       id="surface51228"
       style="">
      <path
         style="fill:#ffffff;fill-opacity:1;fill-rule:evenodd;stroke:none"
         d="M 45.183594,7.226562 H 83.164062 V 154.625 H 45.183594 v -8.68359 l 0.121094,-0.0273 0.210937,-0.0859 0.1875,-0.11718 0.171875,-0.14063 0.144531,-0.17578 0.113281,-0.1875 0.08984,-0.20703 0.04687,-0.21484 0.01563,-0.22657 v -5.57031 h 10.785156 v 1.42578 l 0.04297,0.16406 0.06641,0.16016 0.08594,0.14453 0.113281,0.12891 0.132813,0.10547 0.144531,0.0937 0.15625,0.0664 0.164062,0.0352 0.167969,0.0156 7.011719,-0.0156 0.167969,-0.0352 0.148437,-0.0664 0.144532,-0.0937 0.128906,-0.10547 0.117187,-0.12891 0.08594,-0.14453 0.0625,-0.16016 0.04687,-0.16406 0.0039,-0.16797 -0.0039,-7.01172 -0.04687,-0.16406 -0.0625,-0.16015 -0.08594,-0.14454 -0.117187,-0.1289 -0.128906,-0.10547 -0.144532,-0.0937 -0.148437,-0.0664 -0.160157,-0.0352 0.05078,-0.0586 0.375,-0.60547 0.265625,-0.65625 0.164062,-0.68359 0.04297,-0.70312 -0.04297,-0.71485 -0.164062,-0.68359 -0.265625,-0.65625 -0.375,-0.60156 -0.460938,-0.54297 -0.53125,-0.46094 -0.5,-0.30078 v -18.50391 l 0.06641,0.0352 0.152344,0.0664 0.164063,0.0352 0.171875,0.0156 6.285156,-0.0156 0.167969,-0.0352 0.15625,-0.0664 0.144531,-0.0859 0.128906,-0.11328 0.117188,-0.13281 0.08594,-0.14453 0.06641,-0.15625 0.03516,-0.16407 0.01172,-0.16796 -0.01172,-6.292974 -0.03516,-0.164062 -0.06641,-0.160156 -0.08594,-0.144532 -0.117188,-0.128906 -0.128906,-0.105469 -0.144531,-0.08984 -0.15625,-0.0625 -0.167969,-0.04297 -0.164062,-0.0078 -6.292969,0.0078 -0.164063,0.04297 -0.152344,0.0625 -0.152343,0.08984 -0.128907,0.105469 -0.109374,0.128906 -0.08594,0.144532 -0.0625,0.160156 -0.04297,0.164062 -0.0078,0.171874 v 0.90235 h -1.550781 l -0.08594,-0.008 -0.335938,0.0273 -0.332031,0.082 -0.316406,0.1289 -0.289063,0.17188 -0.257812,0.22266 -0.222656,0.26171 -0.175782,0.28516 -0.128906,0.31641 -0.07813,0.33203 -0.02734,0.33984 0.0039,0.0859 v 22.40625 l -0.488282,0.30078 -0.539062,0.46094 -0.460938,0.54297 -0.375,0.60156 -0.265624,0.65625 -0.167969,0.68359 -0.05469,0.71485 0.05469,0.70312 0.167969,0.68359 0.265624,0.65625 0.375,0.60547 0.05078,0.0586 -0.152344,0.0352 -0.15625,0.0664 -0.144531,0.0937 -0.132813,0.10547 -0.113281,0.1289 -0.08594,0.14454 -0.06641,0.16015 -0.04297,0.16406 -0.0078,0.17188 v 1.26172 H 46.277344 l -0.0078,-13.00391 -0.04687,-0.21484 -0.08984,-0.21094 -0.113281,-0.1875 -0.144531,-0.17187 -0.02734,-0.0195 0.144532,-0.0937 0.164062,-0.14454 0.144531,-0.16796 0.113281,-0.19141 0.08594,-0.20313 0.05859,-0.21484 0.0078,-0.22266 -0.0078,-5.49609 h 8.351562 l 0.08594,0.008 0.339844,-0.0273 0.332031,-0.082 0.316406,-0.12891 0.289063,-0.17969 0.257812,-0.22265 0.222656,-0.25781 0.171875,-0.28907 0.132813,-0.30859 0.07813,-0.33203 0.02734,-0.33985 -0.0078,-0.0859 v -7.22657 h 1.074219 l 0.164062,-0.043 0.152344,-0.0664 0.144531,-0.0859 0.128906,-0.11719 0.117188,-0.1289 0.08594,-0.14453 0.0625,-0.15625 0.04297,-0.16016 0.0078,-0.17187 -0.0078,-6.292974 -0.04297,-0.164062 -0.0625,-0.152344 -0.08594,-0.144531 -0.117188,-0.128907 -0.128906,-0.117187 -0.144531,-0.08594 -0.152344,-0.0625 -0.164062,-0.04297 -0.171875,-0.0078 H 57.15625 v -9.835937 h 16.921875 l 0.08594,0.0078 0.339844,-0.03125 0.328125,-0.07813 0.316407,-0.128906 0.289062,-0.179688 0.261719,-0.222656 0.222656,-0.261718 0.171875,-0.285157 0.128906,-0.3125 0.07813,-0.328125 0.03125,-0.339844 -0.0078,-0.08594 v -58.98852 l 0.0078,-0.08203 -0.03125,-0.34375 -0.07813,-0.324218 -0.128906,-0.316406 -0.171875,-0.289063 -0.222656,-0.257813 -0.261719,-0.222656 -0.289062,-0.183594 -0.316407,-0.128906 -0.328125,-0.07813 -0.339844,-0.02344 -0.08594,0.0078 h -1.570313 l -0.238281,-0.386718 -0.4375,-0.519532 -0.519531,-0.4375 -0.582031,-0.363281 -0.628907,-0.257813 -0.660156,-0.15625 -0.675781,-0.05078 -0.679687,0.05078 -0.660157,0.15625 -0.628906,0.257813 -0.582031,0.363281 -0.519532,0.4375 L 65.4375,22.46875 H 46.222656 L 45.984375,22.082031 45.535156,21.5625 45.183594,21.261719 Z m 0,0"
         id="path2"
         inkscape:connector-curvature="0" />
      <path
         style="fill:#ffffff;fill-opacity:1;fill-rule:evenodd;stroke:none"
         d="m 3.964844,7.226562 h 41.21875 v 14.035157 l -0.15625,-0.136719 -0.585938,-0.355469 -0.625,-0.265625 -0.664062,-0.15625 -0.675782,-0.05078 -0.675781,0.05078 -0.664062,0.15625 -0.625,0.265625 -0.582031,0.355469 -0.519532,0.4375 -0.441406,0.519531 -0.234375,0.386719 h -2.089844 l -0.07813,-0.0039 -0.339844,0.02734 -0.332031,0.07812 -0.316406,0.128907 -0.285156,0.175781 -0.261719,0.222656 -0.222656,0.257813 -0.171875,0.289062 -0.136719,0.316407 -0.07813,0.332031 -0.02344,0.335937 0.0078,0.08594 V 53.0625 l -6.480469,0.0078 V 25.308594 l 0.0078,-0.08203 -0.03125,-0.34375 -0.07813,-0.324218 -0.128907,-0.316406 -0.179687,-0.289063 -0.222656,-0.257813 -0.253907,-0.222656 -0.292968,-0.183594 -0.3125,-0.128906 -0.328125,-0.07813 -0.339844,-0.02344 -0.08594,0.0078 h -3.570313 l -0.238281,-0.386718 -0.441406,-0.519532 -0.515626,-0.4375 -0.585937,-0.363281 -0.625,-0.257813 -0.664063,-0.15625 -0.675781,-0.05078 -0.675781,0.05078 -0.664062,0.15625 -0.625,0.257813 -0.582032,0.363281 -0.519531,0.4375 -0.4375,0.519532 -0.355469,0.574218 -0.257812,0.632813 -0.160156,0.65625 -0.05469,0.683593 0.05469,0.679688 0.160156,0.652344 0.257812,0.632812 0.355469,0.578125 0.292969,0.34375 h -0.195313 l -0.164062,0.03906 -0.160157,0.0625 -0.140624,0.09375 -0.132813,0.109375 -0.113281,0.128906 -0.08594,0.144531 -0.06641,0.15625 -0.04297,0.167969 -0.0078,0.171875 0.0078,6.644531 0.04302,0.16799 0.06641,0.15625 0.08594,0.144531 0.113281,0.128907 0.132813,0.109374 0.140624,0.09375 0.160157,0.06641 0.164062,0.03516 0.167969,0.01172 1.078125,-0.0039 v 13.28125 l -0.351563,0.21875 -0.496093,0.421874 -0.425781,0.5 -0.339844,0.550782 -0.242188,0.605468 -0.160156,0.632813 -0.05078,0.648437 0.05078,0.648438 0.160156,0.632812 0.242188,0.605469 0.339844,0.554688 0.425781,0.496093 0.496093,0.417969 0.28125,0.175781 v 14.5625 l -0.0078,0.08594 0.02734,0.339844 0.08203,0.332031 0.128906,0.308594 0.179688,0.296875 0.214843,0.25 0.257813,0.222656 0.289063,0.179688 0.316406,0.132812 0.332031,0.07813 0.339844,0.02734 0.08594,-0.0078 h 9.042969 l 0.238281,0.382813 0.4375,0.519531 0.519532,0.445312 0.152343,0.09375 -0.152343,0.09375 -0.519532,0.4375 -0.4375,0.519532 -0.359375,0.578125 -0.261719,0.632812 -0.15625,0.65625 -0.05078,0.683594 0.05078,0.675781 0.15625,0.660156 0.261719,0.628907 0.359375,0.574219 0.4375,0.519531 0.519532,0.445312 0.386718,0.230469 v 4.722656 h -6.578125 v -1.070312 l -0.04297,-0.167969 -0.06641,-0.15625 -0.08594,-0.144531 -0.117188,-0.128906 -0.128906,-0.109376 -0.144531,-0.08594 -0.148438,-0.06641 -0.167968,-0.04297 -0.171876,-0.0039 -6.285156,0.0039 -0.164062,0.04297 -0.160156,0.06641 -0.144532,0.08594 -0.128906,0.109376 -0.113281,0.128906 -0.08984,0.144531 -0.0625,0.15625 -0.04297,0.167969 -0.0078,0.171875 0.0078,6.285156 0.04297,0.164063 0.0625,0.160156 0.08984,0.144531 0.113281,0.128906 0.128906,0.109375 0.144532,0.09375 0.160156,0.0625 0.164062,0.03906 0.164063,0.01172 1.894531,-0.0078 -0.05859,0.101563 -0.128906,0.316406 -0.07813,0.332031 -0.02734,0.339844 0.0039,0.08594 v 2.074219 l -0.277344,0.171875 -0.5,0.425781 -0.421875,0.496094 -0.339844,0.554687 -0.246094,0.605469 -0.15625,0.632813 -0.05078,0.648432 0.05078,0.64844 0.15625,0.63281 0.246094,0.60547 0.339844,0.55078 0.421875,0.5 0.5,0.42188 0.277344,0.17578 v 7.82422 l -0.0039,0.0859 0.02734,0.33985 0.07813,0.33203 0.128906,0.30859 0.179688,0.28907 0.21875,0.25781 0.257812,0.22265 0.289063,0.17969 0.316406,0.12891 0.332031,0.082 0.335938,0.0273 0.08594,-0.008 h 7.085938 l 0.0078,5.71875 0.05078,0.21484 0.08594,0.20313 0.117188,0.19141 0.140624,0.16796 0.175782,0.14454 0.136718,0.0937 -0.03125,0.0195 -0.144531,0.17187 -0.113281,0.1875 -0.08594,0.21094 -0.05078,0.21484 -0.01563,0.22266 0.01563,22.89844 0.05078,0.21484 0.08594,0.20703 0.113281,0.1875 0.144531,0.17578 0.175782,0.14063 0.183594,0.11718 0.210937,0.0859 0.214844,0.0508 0.222656,0.0156 17.230469,-0.0156 0.09375,-0.0234 V 154.625 H 3.964844 Z m 0,0"
         id="path4"
         inkscape:connector-curvature="0" />
      <path
         style="fill:none;stroke:#ffffff;stroke-width:0.04;stroke-linecap:round;stroke-linejoin:miter;stroke-miterlimit:10;stroke-opacity:1"
         d="M 0.377779,1.05058 V 0.903119"
         transform="matrix(72,0,0,-72,3.96396,154.62612)"
         id="path6"
         inkscape:connector-curvature="0" />
      <path
         style="fill:none;stroke:#ffffff;stroke-width:0.04;stroke-linecap:round;stroke-linejoin:miter;stroke-miterlimit:10;stroke-opacity:1"
         d="M 0.377779,0.903119 H 0.199014"
         transform="matrix(72,0,0,-72,3.96396,154.62612)"
         id="path8"
         inkscape:connector-curvature="0" />
      <path
         style="fill:none;stroke:#ffffff;stroke-width:0.04;stroke-linecap:round;stroke-linejoin:miter;stroke-miterlimit:10;stroke-opacity:1"
         d="M 0.452812,1.05058 H 0.377779"
         transform="matrix(72,0,0,-72,3.96396,154.62612)"
         id="path10"
         inkscape:connector-curvature="0" />
      <path
         style="fill:none;stroke:#ffffff;stroke-width:0.04;stroke-linecap:round;stroke-linejoin:miter;stroke-miterlimit:10;stroke-opacity:1"
         d="M 0.377779,1.150623 H 0.199014"
         transform="matrix(72,0,0,-72,3.96396,154.62612)"
         id="path12"
         inkscape:connector-curvature="0" />
      <path
         style="fill:none;stroke:#ffffff;stroke-width:0.04;stroke-linecap:round;stroke-linejoin:miter;stroke-miterlimit:10;stroke-opacity:1"
         d="M 0.602823,1.150623 V 0.830582"
         transform="matrix(72,0,0,-72,3.96396,154.62612)"
         id="path14"
         inkscape:connector-curvature="0" />
      <path
         style="fill:none;stroke:#ffffff;stroke-width:0.04;stroke-linecap:round;stroke-linejoin:miter;stroke-miterlimit:10;stroke-opacity:1"
         d="M 0.199014,1.403119 V 1.150623"
         transform="matrix(72,0,0,-72,3.96396,154.62612)"
         id="path16"
         inkscape:connector-curvature="0" />
      <path
         style="fill:none;stroke:#ffffff;stroke-width:0.04;stroke-linecap:round;stroke-linejoin:miter;stroke-miterlimit:10;stroke-opacity:1"
         d="M 0.199991,1.403119 H 0.199014"
         transform="matrix(72,0,0,-72,3.96396,154.62612)"
         id="path18"
         inkscape:connector-curvature="0" />
      <path
         style="fill:none;stroke:#ffffff;stroke-width:0.04;stroke-linecap:round;stroke-linejoin:miter;stroke-miterlimit:10;stroke-opacity:1"
         d="M 0.199991,1.697227 V 1.403119"
         transform="matrix(72,0,0,-72,3.96396,154.62612)"
         id="path20"
         inkscape:connector-curvature="0" />
      <path
         style="fill:none;stroke:#ffffff;stroke-width:0.04;stroke-linecap:round;stroke-linejoin:miter;stroke-miterlimit:10;stroke-opacity:1"
         d="M 0.302801,1.797216 H 0.199991"
         transform="matrix(72,0,0,-72,3.96396,154.62612)"
         id="path22"
         inkscape:connector-curvature="0" />
      <path
         style="fill:none;stroke:#ffffff;stroke-width:0.04;stroke-linecap:round;stroke-linejoin:miter;stroke-miterlimit:10;stroke-opacity:1"
         d="M 0.302801,1.797216 V 1.250612"
         transform="matrix(72,0,0,-72,3.96396,154.62612)"
         id="path24"
         inkscape:connector-curvature="0" />
      <path
         style="fill:none;stroke:#ffffff;stroke-width:0.04;stroke-linecap:round;stroke-linejoin:miter;stroke-miterlimit:10;stroke-opacity:1"
         d="M 0.377779,1.250612 H 0.302801"
         transform="matrix(72,0,0,-72,3.96396,154.62612)"
         id="path26"
         inkscape:connector-curvature="0" />
      <path
         style="fill:none;stroke:#ffffff;stroke-width:0.04;stroke-linecap:round;stroke-linejoin:miter;stroke-miterlimit:10;stroke-opacity:1"
         d="M 0.579873,1.510486 V 1.350601"
         transform="matrix(72,0,0,-72,3.96396,154.62612)"
         id="path28"
         inkscape:connector-curvature="0" />
      <path
         style="fill:none;stroke:#ffffff;stroke-width:0.04;stroke-linecap:round;stroke-linejoin:miter;stroke-miterlimit:10;stroke-opacity:1"
         d="M 0.579873,1.510486 H 0.534897"
         transform="matrix(72,0,0,-72,3.96396,154.62612)"
         id="path30"
         inkscape:connector-curvature="0" />
      <path
         style="fill:none;stroke:#ffffff;stroke-width:0.04;stroke-linecap:round;stroke-linejoin:miter;stroke-miterlimit:10;stroke-opacity:1"
         d="M 0.534897,1.555517 V 1.510486"
         transform="matrix(72,0,0,-72,3.96396,154.62612)"
         id="path32"
         inkscape:connector-curvature="0" />
      <path
         style="fill:none;stroke:#ffffff;stroke-width:0.04;stroke-linecap:round;stroke-linejoin:miter;stroke-miterlimit:10;stroke-opacity:1"
         d="M 0.20878,0.830582 V 0.75148"
         transform="matrix(72,0,0,-72,3.96396,154.62612)"
         id="path34"
         inkscape:connector-curvature="0" />
      <path
         style="fill:none;stroke:#ffffff;stroke-width:0.04;stroke-linecap:round;stroke-linejoin:miter;stroke-miterlimit:10;stroke-opacity:1"
         d="M 0.602823,0.830582 H 0.20878"
         transform="matrix(72,0,0,-72,3.96396,154.62612)"
         id="path36"
         inkscape:connector-curvature="0" />
      <path
         style="fill:none;stroke:#ffffff;stroke-width:0.04;stroke-linecap:round;stroke-linejoin:miter;stroke-miterlimit:10;stroke-opacity:1"
         d="M 0.359496,0.592518 H 0.20878"
         transform="matrix(72,0,0,-72,3.96396,154.62612)"
         id="path38"
         inkscape:connector-curvature="0" />
      <path
         style="fill:none;stroke:#ffffff;stroke-width:0.04;stroke-linecap:round;stroke-linejoin:miter;stroke-miterlimit:10;stroke-opacity:1"
         d="M 0.20878,0.75148 V 0.592518"
         transform="matrix(72,0,0,-72,3.96396,154.62612)"
         id="path40"
         inkscape:connector-curvature="0" />
      <path
         style="fill:none;stroke:#ffffff;stroke-width:0.04;stroke-linecap:round;stroke-linejoin:miter;stroke-miterlimit:10;stroke-opacity:1"
         d="M 0.534897,1.805517 H 0.452812"
         transform="matrix(72,0,0,-72,3.96396,154.62612)"
         id="path42"
         inkscape:connector-curvature="0" />
      <path
         style="fill:none;stroke:#ffffff;stroke-width:0.04;stroke-linecap:round;stroke-linejoin:miter;stroke-miterlimit:10;stroke-opacity:1"
         d="M 0.452812,1.805517 V 1.05058"
         transform="matrix(72,0,0,-72,3.96396,154.62612)"
         id="path44"
         inkscape:connector-curvature="0" />
      <path
         style="fill:none;stroke:#ffffff;stroke-width:0.04;stroke-linecap:round;stroke-linejoin:miter;stroke-miterlimit:10;stroke-opacity:1"
         d="M 0.900023,1.805517 H 0.534897"
         transform="matrix(72,0,0,-72,3.96396,154.62612)"
         id="path46"
         inkscape:connector-curvature="0" />
      <path
         style="fill:none;stroke:#ffffff;stroke-width:0.04;stroke-linecap:round;stroke-linejoin:miter;stroke-miterlimit:10;stroke-opacity:1"
         d="M 0.677801,1.350601 H 0.579873"
         transform="matrix(72,0,0,-72,3.96396,154.62612)"
         id="path48"
         inkscape:connector-curvature="0" />
      <path
         style="fill:none;stroke:#ffffff;stroke-width:0.04;stroke-linecap:round;stroke-linejoin:miter;stroke-miterlimit:10;stroke-opacity:1"
         d="M 0.880221,1.350601 V 1.214588"
         transform="matrix(72,0,0,-72,3.96396,154.62612)"
         id="path50"
         inkscape:connector-curvature="0" />
      <path
         style="fill:none;stroke:#ffffff;stroke-width:0.04;stroke-linecap:round;stroke-linejoin:miter;stroke-miterlimit:10;stroke-opacity:1"
         d="M 0.880221,1.350601 H 0.677801"
         transform="matrix(72,0,0,-72,3.96396,154.62612)"
         id="path52"
         inkscape:connector-curvature="0" />
      <path
         style="fill:none;stroke:#ffffff;stroke-width:0.04;stroke-linecap:round;stroke-linejoin:miter;stroke-miterlimit:10;stroke-opacity:1"
         d="M 0.975001,0.975601 H 0.70878"
         transform="matrix(72,0,0,-72,3.96396,154.62612)"
         id="path54"
         inkscape:connector-curvature="0" />
      <path
         style="fill:none;stroke:#ffffff;stroke-width:0.04;stroke-linecap:round;stroke-linejoin:miter;stroke-miterlimit:10;stroke-opacity:1"
         d="M 0.975001,1.797216 V 0.975601"
         transform="matrix(72,0,0,-72,3.96396,154.62612)"
         id="path56"
         inkscape:connector-curvature="0" />
      <path
         style="fill:none;stroke:#ffffff;stroke-width:0.04;stroke-linecap:round;stroke-linejoin:miter;stroke-miterlimit:10;stroke-opacity:1"
         d="M 0.975001,1.797216 H 0.900023"
         transform="matrix(72,0,0,-72,3.96396,154.62612)"
         id="path58"
         inkscape:connector-curvature="0" />
      <path
         style="fill:none;stroke:#ffffff;stroke-width:0.04;stroke-linecap:round;stroke-linejoin:miter;stroke-miterlimit:10;stroke-opacity:1"
         d="m 0.900023,1.805517 v -0.0083"
         transform="matrix(72,0,0,-72,3.96396,154.62612)"
         id="path60"
         inkscape:connector-curvature="0" />
      <path
         style="fill:none;stroke:#ffffff;stroke-width:0.04;stroke-linecap:round;stroke-linejoin:miter;stroke-miterlimit:10;stroke-opacity:1"
         d="M 0.677801,1.150623 H 0.602823"
         transform="matrix(72,0,0,-72,3.96396,154.62612)"
         id="path62"
         inkscape:connector-curvature="0" />
      <path
         style="fill:none;stroke:#ffffff;stroke-width:0.04;stroke-linecap:round;stroke-linejoin:miter;stroke-miterlimit:10;stroke-opacity:1"
         d="M 0.900023,1.350601 H 0.778984"
         transform="matrix(72,0,0,-72,3.96396,154.62612)"
         id="path64"
         inkscape:connector-curvature="0" />
      <path
         style="fill:none;stroke:#ffffff;stroke-width:0.04;stroke-linecap:round;stroke-linejoin:miter;stroke-miterlimit:10;stroke-opacity:1"
         d="M 0.900023,1.697227 V 1.350601"
         transform="matrix(72,0,0,-72,3.96396,154.62612)"
         id="path66"
         inkscape:connector-curvature="0" />
      <path
         style="fill:none;stroke:#ffffff;stroke-width:0.04;stroke-linecap:round;stroke-linejoin:miter;stroke-miterlimit:10;stroke-opacity:1"
         d="M 0.70878,0.975601 V 0.75148"
         transform="matrix(72,0,0,-72,3.96396,154.62612)"
         id="path68"
         inkscape:connector-curvature="0" />
      <path
         style="fill:none;stroke:#ffffff;stroke-width:0.04;stroke-linecap:round;stroke-linejoin:miter;stroke-miterlimit:10;stroke-opacity:1"
         d="M 0.70878,0.75148 V 0.592518"
         transform="matrix(72,0,0,-72,3.96396,154.62612)"
         id="path70"
         inkscape:connector-curvature="0" />
      <path
         style="fill:none;stroke:#ffffff;stroke-width:0.04;stroke-linecap:round;stroke-linejoin:miter;stroke-miterlimit:10;stroke-opacity:1"
         d="M 0.880221,0.714588 H 0.79998"
         transform="matrix(72,0,0,-72,3.96396,154.62612)"
         id="path72"
         inkscape:connector-curvature="0" />
      <path
         style="fill:none;stroke:#ffffff;stroke-width:0.04;stroke-linecap:round;stroke-linejoin:miter;stroke-miterlimit:10;stroke-opacity:1"
         d="M 0.70878,0.592518 H 0.540594"
         transform="matrix(72,0,0,-72,3.96396,154.62612)"
         id="path74"
         inkscape:connector-curvature="0" />
      <path
         style="fill:none;stroke:#ffffff;stroke-width:0.04;stroke-linecap:round;stroke-linejoin:miter;stroke-miterlimit:10;stroke-opacity:1"
         d="M 0.449991,0.257882 V 0.247194"
         transform="matrix(72,0,0,-72,3.96396,154.62612)"
         id="path76"
         inkscape:connector-curvature="0" />
      <path
         style="fill:none;stroke:#ffffff;stroke-width:0.04;stroke-linecap:round;stroke-linejoin:miter;stroke-miterlimit:10;stroke-opacity:1"
         d="M 0.79998,0.247194 H 0.449991"
         transform="matrix(72,0,0,-72,3.96396,154.62612)"
         id="path78"
         inkscape:connector-curvature="0" />
      <path
         style="fill:none;stroke:#ffffff;stroke-width:0.04;stroke-linecap:round;stroke-linejoin:miter;stroke-miterlimit:10;stroke-opacity:1"
         d="M 0.79998,0.714588 V 0.347184"
         transform="matrix(72,0,0,-72,3.96396,154.62612)"
         id="path80"
         inkscape:connector-curvature="0" />
      <path
         style="fill:#ffffff;fill-opacity:1;fill-rule:evenodd;stroke:none"
         d="m 56.003906,78.984375 c 0,-4.320313 -6.476562,-4.320313 -6.476562,0 0,4.320313 6.476562,4.320313 6.476562,0"
         id="path82"
         inkscape:connector-curvature="0" />
      <path
         style="fill:#ffffff;fill-opacity:1;fill-rule:evenodd;stroke:none"
         d="m 64.277344,100.11328 v 6.1211 h 6.121094 v -6.1211 z m 0,0"
         id="path84"
         inkscape:connector-curvature="0" />
      <path
         style="fill:#ffffff;fill-opacity:1;fill-rule:evenodd;stroke:none"
         d="m 51.9375,97.457031 v 6.121099 h 6.121094 v -6.121099 z m 0,0"
         id="path86"
         inkscape:connector-curvature="0" />
      <path
         style="fill:#ffffff;fill-opacity:1;fill-rule:evenodd;stroke:none"
         d="m 56.003906,71.78125 c 0,-4.316406 -6.476562,-4.316406 -6.476562,0 0,4.320312 6.476562,4.320312 6.476562,0"
         id="path88"
         inkscape:connector-curvature="0" />
      <path
         style="fill:#ffffff;fill-opacity:1;fill-rule:evenodd;stroke:none"
         d="m 15.230469,86.542969 v 6.121093 h 6.121093 v -6.121093 z m 0,0"
         id="path90"
         inkscape:connector-curvature="0" />
      <path
         style="fill:#ffffff;fill-opacity:1;fill-rule:evenodd;stroke:none"
         d="m 34.40625,78.984375 c 0,-4.320313 -6.480469,-4.320313 -6.480469,0 0,4.320313 6.480469,4.320313 6.480469,0"
         id="path92"
         inkscape:connector-curvature="0" />
      <path
         style="fill:#ffffff;fill-opacity:1;fill-rule:evenodd;stroke:none"
         d="m 22.058594,100.51953 c 0,-4.08203 -6.121094,-4.08203 -6.121094,0 0,4.07813 6.121094,4.07813 6.121094,0"
         id="path94"
         inkscape:connector-curvature="0" />
      <path
         style="fill:#ffffff;fill-opacity:1;fill-rule:evenodd;stroke:none"
         d="m 58.144531,133.40625 v 6.83984 h 6.839844 v -6.83984 z m 0,0"
         id="path96"
         inkscape:connector-curvature="0" />
      <path
         style="fill:#ffffff;fill-opacity:1;fill-rule:evenodd;stroke:none"
         d="m 64.984375,129.62891 c 0,-4.5625 -6.839844,-4.5625 -6.839844,0 0,4.55859 6.839844,4.55859 6.839844,0"
         id="path98"
         inkscape:connector-curvature="0" />
      <path
         style="fill:#ffffff;fill-opacity:1;fill-rule:evenodd;stroke:none"
         d="m 21.351562,53.601562 c 0,-4.078124 -6.121093,-4.078124 -6.121093,0 0,4.082032 6.121093,4.082032 6.121093,0"
         id="path100"
         inkscape:connector-curvature="0" />
      <path
         style="fill:#ffffff;fill-opacity:1;fill-rule:evenodd;stroke:none"
         d="m 27.925781,54.144531 v 6.476563 h 6.480469 v -6.476563 z m 0,0"
         id="path102"
         inkscape:connector-curvature="0" />
      <path
         style="fill:#ffffff;fill-opacity:1;fill-rule:evenodd;stroke:none"
         d="m 34.40625,64.582031 c 0,-4.320312 -6.480469,-4.320312 -6.480469,0 0,4.320313 6.480469,4.320313 6.480469,0"
         id="path104"
         inkscape:connector-curvature="0" />
      <path
         style="fill:#ffffff;fill-opacity:1;fill-rule:evenodd;stroke:none"
         d="m 34.40625,71.78125 c 0,-4.316406 -6.480469,-4.316406 -6.480469,0 0,4.320312 6.480469,4.320312 6.480469,0"
         id="path106"
         inkscape:connector-curvature="0" />
      <path
         style="fill:#ffffff;fill-opacity:1;fill-rule:evenodd;stroke:none"
         d="m 15.125,29.1875 v 6.480469 h 6.480469 V 29.1875 Z m 0,0"
         id="path108"
         inkscape:connector-curvature="0" />
      <path
         style="fill:#ffffff;fill-opacity:1;fill-rule:evenodd;stroke:none"
         d="m 21.605469,25.226562 c 0,-4.320312 -6.480469,-4.320312 -6.480469,0 0,4.320313 6.480469,4.320313 6.480469,0"
         id="path110"
         inkscape:connector-curvature="0" />
      <path
         style="fill:#ffffff;fill-opacity:1;fill-rule:evenodd;stroke:none"
         d="m 56.003906,64.582031 c 0,-4.320312 -6.476562,-4.320312 -6.476562,0 0,4.320313 6.476562,4.320313 6.476562,0"
         id="path112"
         inkscape:connector-curvature="0" />
      <path
         style="fill:#ffffff;fill-opacity:1;fill-rule:evenodd;stroke:none"
         d="m 70.398438,67.175781 c 0,-4.082031 -6.121094,-4.082031 -6.121094,0 0,4.078125 6.121094,4.078125 6.121094,0"
         id="path114"
         inkscape:connector-curvature="0" />
      <path
         style="fill:#ffffff;fill-opacity:1;fill-rule:evenodd;stroke:none"
         d="m 56.003906,57.382812 c 0,-4.320312 -6.476562,-4.320312 -6.476562,0 0,4.320313 6.476562,4.320313 6.476562,0"
         id="path116"
         inkscape:connector-curvature="0" />
      <path
         style="fill:#ffffff;fill-opacity:1;fill-rule:evenodd;stroke:none"
         d="m 39.238281,39.390625 v 6.480469 h 6.476563 v -6.480469 z m 0,0"
         id="path118"
         inkscape:connector-curvature="0" />
      <path
         style="fill:#ffffff;fill-opacity:1;fill-rule:evenodd;stroke:none"
         d="m 45.714844,24.628906 c 0,-4.320312 -6.476563,-4.320312 -6.476563,0 0,4.320313 6.476563,4.320313 6.476563,0"
         id="path120"
         inkscape:connector-curvature="0" />
      <path
         style="fill:#ffffff;fill-opacity:1;fill-rule:evenodd;stroke:none"
         d="m 65.523438,29.1875 v 6.480469 h 6.480468 V 29.1875 Z m 0,0"
         id="path122"
         inkscape:connector-curvature="0" />
      <path
         style="fill:#ffffff;fill-opacity:1;fill-rule:evenodd;stroke:none"
         d="m 72.003906,25.226562 c 0,-4.320312 -6.480468,-4.320312 -6.480468,0 0,4.320313 6.480468,4.320313 6.480468,0"
         id="path124"
         inkscape:connector-curvature="0" />
      <path
         style="fill:#ffffff;fill-opacity:1;fill-rule:evenodd;stroke:none"
         d="m 27.859375,121.88672 v 22.67187 h 17.007813 v -22.67187"
         id="path126"
         inkscape:connector-curvature="0" />
      <path
         style="fill:#ffffff;fill-opacity:1;fill-rule:evenodd;stroke:none"
         d="m 40.621094,109.69922 v 9.92187 h 4.535156 v -9.92187"
         id="path128"
         inkscape:connector-curvature="0" />
      <path
         style="fill:#ffffff;fill-opacity:1;fill-rule:evenodd;stroke:none"
         d="m 27.578125,109.69922 v 9.92187 h 4.539063 v -9.92187"
         id="path130"
         inkscape:connector-curvature="0" />
      <path
         style="fill:#000000;fill-opacity:1;fill-rule:evenodd;stroke:none"
         d="m 19.371094,25.226562 c 0,-1.34375 -2.015625,-1.34375 -2.015625,0 0,1.34375 2.015625,1.34375 2.015625,0"
         id="path132"
         inkscape:connector-curvature="0" />
      <path
         style="fill:#000000;fill-opacity:1;fill-rule:evenodd;stroke:none"
         d="m 19.371094,32.425781 c 0,-1.34375 -2.015625,-1.34375 -2.015625,0 0,1.347657 2.015625,1.347657 2.015625,0"
         id="path134"
         inkscape:connector-curvature="0" />
      <path
         style="fill:#000000;fill-opacity:1;fill-rule:evenodd;stroke:none"
         d="m 32.171875,57.382812 c 0,-1.34375 -2.015625,-1.34375 -2.015625,0 0,1.34375 2.015625,1.34375 2.015625,0"
         id="path136"
         inkscape:connector-curvature="0" />
      <path
         style="fill:#000000;fill-opacity:1;fill-rule:evenodd;stroke:none"
         d="m 32.171875,64.582031 c 0,-1.34375 -2.015625,-1.34375 -2.015625,0 0,1.34375 2.015625,1.34375 2.015625,0"
         id="path138"
         inkscape:connector-curvature="0" />
      <path
         style="fill:#000000;fill-opacity:1;fill-rule:evenodd;stroke:none"
         d="m 32.171875,71.78125 c 0,-1.34375 -2.015625,-1.34375 -2.015625,0 0,1.34375 2.015625,1.34375 2.015625,0"
         id="path140"
         inkscape:connector-curvature="0" />
      <path
         style="fill:#000000;fill-opacity:1;fill-rule:evenodd;stroke:none"
         d="m 32.171875,78.984375 c 0,-1.34375 -2.015625,-1.34375 -2.015625,0 0,1.34375 2.015625,1.34375 2.015625,0"
         id="path142"
         inkscape:connector-curvature="0" />
      <path
         style="fill:#000000;fill-opacity:1;fill-rule:evenodd;stroke:none"
         d="m 53.773438,57.382812 c 0,-1.34375 -2.015626,-1.34375 -2.015626,0 0,1.34375 2.015626,1.34375 2.015626,0"
         id="path144"
         inkscape:connector-curvature="0" />
      <path
         style="fill:#000000;fill-opacity:1;fill-rule:evenodd;stroke:none"
         d="m 53.773438,64.582031 c 0,-1.34375 -2.015626,-1.34375 -2.015626,0 0,1.34375 2.015626,1.34375 2.015626,0"
         id="path146"
         inkscape:connector-curvature="0" />
      <path
         style="fill:#000000;fill-opacity:1;fill-rule:evenodd;stroke:none"
         d="m 53.773438,71.78125 c 0,-1.34375 -2.015626,-1.34375 -2.015626,0 0,1.34375 2.015626,1.34375 2.015626,0"
         id="path148"
         inkscape:connector-curvature="0" />
      <path
         style="fill:#000000;fill-opacity:1;fill-rule:evenodd;stroke:none"
         d="m 53.773438,78.984375 c 0,-1.34375 -2.015626,-1.34375 -2.015626,0 0,1.34375 2.015626,1.34375 2.015626,0"
         id="path150"
         inkscape:connector-curvature="0" />
      <path
         style="fill:#000000;fill-opacity:1;fill-rule:evenodd;stroke:none"
         d="m 69.773438,25.226562 c 0,-1.34375 -2.015626,-1.34375 -2.015626,0 0,1.34375 2.015626,1.34375 2.015626,0"
         id="path152"
         inkscape:connector-curvature="0" />
      <path
         style="fill:#000000;fill-opacity:1;fill-rule:evenodd;stroke:none"
         d="m 69.773438,32.425781 c 0,-1.34375 -2.015626,-1.34375 -2.015626,0 0,1.347657 2.015626,1.347657 2.015626,0"
         id="path154"
         inkscape:connector-curvature="0" />
      <path
         style="fill:#000000;fill-opacity:1;fill-rule:evenodd;stroke:none"
         d="m 19.371094,53.601562 c 0,-1.4375 -2.160156,-1.4375 -2.160156,0 0,1.441407 2.160156,1.441407 2.160156,0"
         id="path156"
         inkscape:connector-curvature="0" />
      <path
         style="fill:#000000;fill-opacity:1;fill-rule:evenodd;stroke:none"
         d="m 19.371094,89.601562 c 0,-1.4375 -2.160156,-1.4375 -2.160156,0 0,1.441407 2.160156,1.441407 2.160156,0"
         id="path158"
         inkscape:connector-curvature="0" />
      <path
         style="fill:#000000;fill-opacity:1;fill-rule:evenodd;stroke:none"
         d="m 20.078125,100.51953 c 0,-1.441405 -2.160156,-1.441405 -2.160156,0 0,1.4375 2.160156,1.4375 2.160156,0"
         id="path160"
         inkscape:connector-curvature="0" />
      <path
         style="fill:#000000;fill-opacity:1;fill-rule:evenodd;stroke:none"
         d="m 43.558594,24.628906 c 0,-1.4375 -2.160156,-1.4375 -2.160156,0 0,1.441406 2.160156,1.441406 2.160156,0"
         id="path162"
         inkscape:connector-curvature="0" />
      <path
         style="fill:#000000;fill-opacity:1;fill-rule:evenodd;stroke:none"
         d="m 43.558594,42.628906 c 0,-1.4375 -2.160156,-1.4375 -2.160156,0 0,1.441406 2.160156,1.441406 2.160156,0"
         id="path164"
         inkscape:connector-curvature="0" />
      <path
         style="fill:#000000;fill-opacity:1;fill-rule:evenodd;stroke:none"
         d="m 56.078125,100.51953 c 0,-1.441405 -2.160156,-1.441405 -2.160156,0 0,1.4375 2.160156,1.4375 2.160156,0"
         id="path166"
         inkscape:connector-curvature="0" />
      <path
         style="fill:#000000;fill-opacity:1;fill-rule:evenodd;stroke:none"
         d="m 68.417969,67.175781 c 0,-1.441406 -2.160157,-1.441406 -2.160157,0 0,1.4375 2.160157,1.4375 2.160157,0"
         id="path168"
         inkscape:connector-curvature="0" />
      <path
         style="fill:#000000;fill-opacity:1;fill-rule:evenodd;stroke:none"
         d="m 68.417969,103.17578 c 0,-1.4414 -2.160157,-1.4414 -2.160157,0 0,1.4375 2.160157,1.4375 2.160157,0"
         id="path170"
         inkscape:connector-curvature="0" />
      <path
         style="fill:#000000;fill-opacity:1;fill-rule:evenodd;stroke:none"
         d="m 63.113281,129.62891 c 0,-2.06641 -3.097656,-2.06641 -3.097656,0 0,2.0625 3.097656,2.0625 3.097656,0"
         id="path172"
         inkscape:connector-curvature="0" />
      <path
         style="fill:#000000;fill-opacity:1;fill-rule:evenodd;stroke:none"
         d="m 63.113281,136.82812 c 0,-2.0625 -3.097656,-2.0625 -3.097656,0 0,2.0625 3.097656,2.0625 3.097656,0"
         id="path174"
         inkscape:connector-curvature="0" />
    </g>
  </g>
</svg>
